<svg width="150" height="50" viewBox="0 0 150 50" fill="none" xmlns="http://www.w3.org/2000/svg">
  <path d="M17.1 14.9C17.8 14.9 18.4 15.1 19 15.5C19.6 15.9 20 16.4 20.2 17H25.8C25.5 15.2 24.6 13.7 23.1 12.5C21.6 11.3 19.6 10.7 17.1 10.7C15.3 10.7 13.7 11.1 12.3 11.9C10.9 12.7 9.8 13.8 9 15.2C8.2 16.6 7.8 18.2 7.8 20C7.8 21.8 8.2 23.4 9 24.8C9.8 26.2 10.9 27.3 12.3 28.1C13.7 28.9 15.3 29.3 17.1 29.3C19.6 29.3 21.6 28.7 23.1 27.5C24.6 26.3 25.5 24.8 25.8 23H20.2C20 23.6 19.6 24.1 19 24.5C18.4 24.9 17.8 25.1 17.1 25.1C16.1 25.1 15.3 24.8 14.7 24.1C14.1 23.4 13.8 22.3 13.8 20C13.8 17.7 14.1 16.6 14.7 15.9C15.3 15.2 16.1 14.9 17.1 14.9Z" fill="#7E6A56"/>
  <path d="M37.8 29L33.2 20.8V29H27.5V10.9H33.2V18.8L37.8 10.9H44.4L38.3 20.4L44.6 29H37.8Z" fill="#7E6A56"/>
  <path d="M48.2 29V10.9H62.5V15.1H54V17.7H61.4V21.9H54V24.8H62.5V29H48.2Z" fill="#7E6A56"/>
  <path d="M70.8 15.1V18.5H78V22.7H70.8V29H65.1V10.9H79.2V15.1H70.8Z" fill="#7E6A56"/>
  <path d="M83.1 29V10.9H97.4V15.1H88.9V17.7H96.3V21.9H88.9V24.8H97.4V29H83.1Z" fill="#7E6A56"/>
  <path d="M105.1 29V10.9H110.8V24.8H118.5V29H105.1Z" fill="#7E6A56"/>
  <path d="M130.4 29L126.2 22.2H125.6V29H119.9V10.9H128.3C129.8 10.9 131.1 11.2 132.2 11.7C133.3 12.2 134.1 12.9 134.6 13.8C135.1 14.7 135.4 15.6 135.4 16.6C135.4 17.7 135.1 18.7 134.4 19.6C133.7 20.5 132.8 21.1 131.5 21.5L136.3 29H130.4ZM125.6 18.8H127.9C128.6 18.8 129.1 18.6 129.5 18.3C129.9 18 130.1 17.5 130.1 16.9C130.1 16.3 129.9 15.9 129.5 15.6C129.1 15.3 128.6 15.1 127.9 15.1H125.6V18.8Z" fill="#7E6A56"/>
  <path d="M148.6 29L147.4 25.8H140.8L139.6 29H133.7L140.6 10.9H147.7L154.6 29H148.6ZM142.1 21.8H146.1L144.1 16.3L142.1 21.8Z" fill="#7E6A56"/>
  <path d="M17.2 39V33.3H24.5C25.2 33.3 25.7 33.2 26.1 33C26.5 32.8 26.9 32.5 27.1 32.1C27.3 31.7 27.4 31.2 27.4 30.7C27.4 30.2 27.3 29.7 27.1 29.3C26.9 28.9 26.5 28.6 26.1 28.4C25.7 28.2 25.2 28.1 24.5 28.1H17.2V22.4H25.7C27.2 22.4 28.6 22.8 29.7 23.5C30.8 24.2 31.7 25.1 32.4 26.3C33 27.5 33.3 28.8 33.3 30.3C33.3 31.8 33 33.1 32.4 34.3C31.7 35.5 30.8 36.4 29.7 37.1C28.6 37.8 27.2 38.2 25.7 38.2H23V39H17.2Z" fill="#739D76"/>
  <path d="M41.5 28.4C41.5 28.9 41.7 29.3 42 29.6C42.3 29.9 42.8 30.1 43.5 30.1H47.9C48.6 30.1 49.1 29.9 49.4 29.6C49.7 29.3 49.9 28.9 49.9 28.4C49.9 27.9 49.7 27.5 49.4 27.2C49.1 26.9 48.6 26.7 47.9 26.7H43.5C42.8 26.7 42.3 26.9 42 27.2C41.7 27.5 41.5 27.9 41.5 28.4ZM34.8 39V22.4H40.6V24C41.1 23.4 41.7 23 42.3 22.7C42.9 22.4 43.7 22.3 44.5 22.3H47C48.5 22.3 49.9 22.7 51 23.4C52.1 24.1 53 25 53.7 26.2C54.3 27.4 54.7 28.7 54.7 30.2C54.7 31.7 54.4 33 53.7 34.2C53 35.4 52.1 36.3 51 37C49.9 37.7 48.5 38.1 47 38.1H40.6V39H34.8Z" fill="#739D76"/>
  <path d="M64.9 39C63.4 39 62 38.6 60.9 37.9C59.8 37.2 58.9 36.3 58.2 35.1C57.6 33.9 57.2 32.6 57.2 31.1V22.4H63V29.8C63 30.3 63.2 30.7 63.5 31C63.8 31.3 64.3 31.5 65 31.5C65.6 31.5 66.1 31.3 66.4 31C66.7 30.7 66.9 30.3 66.9 29.8V22.4H72.7V31.1C72.7 32.6 72.4 33.9 71.7 35.1C71.1 36.3 70.2 37.2 69.1 37.9C68 38.6 66.6 39 65.1 39H64.9Z" fill="#739D76"/>
  <path d="M77.5 39V31.3C77.5 29.8 77.9 28.5 78.5 27.3C79.2 26.1 80.1 25.2 81.2 24.5C82.3 23.8 83.7 23.4 85.2 23.4H87.6V28.4H85.2C84.5 28.4 84 28.6 83.7 28.9C83.4 29.2 83.2 29.6 83.2 30.1V39H77.5Z" fill="#739D76"/>
  <path d="M88.7 39V22.4H94.5V39H88.7ZM88.7 20.9V16.7H94.5V20.9H88.7Z" fill="#739D76"/>
  <path d="M101.7 39V22.4H107.5V39H101.7ZM101.7 20.9V16.7H107.5V20.9H101.7Z" fill="#739D76"/>
</svg>