<svg width="180" height="60" viewBox="0 0 180 60" fill="none" xmlns="http://www.w3.org/2000/svg">
  <path d="M20.52 17.88C21.36 17.88 22.08 18.12 22.8 18.6C23.52 19.08 24 19.68 24.24 20.4H30.96C30.6 18.24 29.52 16.44 27.72 15C25.92 13.56 23.52 12.84 20.52 12.84C18.36 12.84 16.44 13.32 14.76 14.28C13.08 15.24 11.76 16.56 10.8 18.24C9.84 19.92 9.36 21.84 9.36 24C9.36 26.16 9.84 28.08 10.8 29.76C11.76 31.44 13.08 32.76 14.76 33.72C16.44 34.68 18.36 35.16 20.52 35.16C23.52 35.16 25.92 34.44 27.72 33C29.52 31.56 30.6 29.76 30.96 27.6H24.24C24 28.32 23.52 28.92 22.8 29.4C22.08 29.88 21.36 30.12 20.52 30.12C19.32 30.12 18.36 29.76 17.64 29.04C16.92 28.32 16.56 27 16.56 24C16.56 21.24 16.92 19.92 17.64 19.08C18.36 18.24 19.32 17.88 20.52 17.88Z" fill="white"/>
  <path d="M45.36 34.8L39.84 24.96V34.8H33V13.08H39.84V22.56L45.36 13.08H53.28L45.96 24.48L53.52 34.8H45.36Z" fill="white"/>
  <path d="M57.84 34.8V13.08H75V18.12H64.8V21.24H73.68V26.28H64.8V29.76H75V34.8H57.84Z" fill="white"/>
  <path d="M84.96 18.12V22.2H93.6V27.24H84.96V34.8H78.12V13.08H95.04V18.12H84.96Z" fill="white"/>
  <path d="M99.72 34.8V13.08H116.88V18.12H106.68V21.24H115.56V26.28H106.68V29.76H116.88V34.8H99.72Z" fill="white"/>
  <path d="M126.12 34.8V13.08H132.96V29.76H142.2V34.8H126.12Z" fill="white"/>
  <path d="M156.48 34.8L151.44 26.64H150.72V34.8H143.88V13.08H153.96C155.76 13.08 157.32 13.44 158.64 14.04C159.96 14.64 160.92 15.48 161.52 16.56C162.12 17.64 162.48 18.72 162.48 19.92C162.48 21.24 162.12 22.44 161.28 23.52C160.44 24.6 159.36 25.32 157.8 25.8L163.56 34.8H156.48ZM150.72 22.56H153.48C154.32 22.56 154.92 22.32 155.4 21.96C155.88 21.6 156.12 21 156.12 20.28C156.12 19.56 155.88 19.08 155.4 18.72C154.92 18.36 154.32 18.12 153.48 18.12H150.72V22.56Z" fill="white"/>
  <path d="M178.32 34.8L176.88 30.96H168.96L167.52 34.8H160.44L168.72 13.08H177.24L185.52 34.8H178.32ZM170.52 26.16H175.32L172.92 19.56L170.52 26.16Z" fill="white"/>
  <path d="M20.64 46.8V39.96H29.4C30.24 39.96 30.84 39.84 31.32 39.6C31.8 39.36 32.28 39 32.52 38.52C32.76 38.04 32.88 37.44 32.88 36.84C32.88 36.24 32.76 35.64 32.52 35.16C32.28 34.68 31.8 34.32 31.32 34.08C30.84 33.84 30.24 33.72 29.4 33.72H20.64V26.88H30.84C32.64 26.88 34.32 27.36 35.64 28.2C36.96 29.04 38.04 30.12 38.88 31.56C39.6 33 40 34.56 40 36.36C40 38.16 39.6 39.72 38.88 41.16C38.04 42.6 36.96 43.68 35.64 44.52C34.32 45.36 32.64 45.84 30.84 45.84H27.6V46.8H20.64Z" fill="#9BC09F"/>
  <path d="M49.8 34.08C49.8 34.68 50.04 35.16 50.4 35.52C50.76 35.88 51.36 36.12 52.2 36.12H57.48C58.32 36.12 58.92 35.88 59.28 35.52C59.64 35.16 59.88 34.68 59.88 34.08C59.88 33.48 59.64 33 59.28 32.64C58.92 32.28 58.32 32.04 57.48 32.04H52.2C51.36 32.04 50.76 32.28 50.4 32.64C50.04 33 49.8 33.48 49.8 34.08ZM41.76 46.8V26.88H48.72V28.8C49.32 28.08 50.04 27.6 50.76 27.24C51.48 26.88 52.44 26.76 53.4 26.76H56.4C58.2 26.76 59.88 27.24 61.2 28.08C62.52 28.92 63.6 30 64.44 31.44C65.16 32.88 65.64 34.44 65.64 36.24C65.64 38.04 65.28 39.6 64.44 41.04C63.6 42.48 62.52 43.56 61.2 44.4C59.88 45.24 58.2 45.72 56.4 45.72H48.72V46.8H41.76Z" fill="#9BC09F"/>
  <path d="M77.88 46.8C76.08 46.8 74.4 46.32 73.08 45.48C71.76 44.64 70.68 43.56 69.84 42.12C69.12 40.68 68.64 39.12 68.64 37.32V26.88H75.6V35.76C75.6 36.36 75.84 36.84 76.2 37.2C76.56 37.56 77.16 37.8 78 37.8C78.72 37.8 79.32 37.56 79.68 37.2C80.04 36.84 80.28 36.36 80.28 35.76V26.88H87.24V37.32C87.24 39.12 86.88 40.68 86.04 42.12C85.32 43.56 84.24 44.64 82.92 45.48C81.6 46.32 79.92 46.8 78.12 46.8H77.88Z" fill="#9BC09F"/>
  <path d="M93 46.8V37.56C93 36 93.48 34.68 94.2 33.48C95.04 32.28 96.12 31.44 97.44 30.84C98.76 30.24 100.44 29.88 102.24 29.88H105.12V34.08H102.24C101.4 34.08 100.8 34.32 100.44 34.68C100.08 35.04 99.84 35.52 99.84 36.12V46.8H93Z" fill="#9BC09F"/>
  <path d="M106.44 46.8V26.88H113.4V46.8H106.44ZM106.44 25.08V20.04H113.4V25.08H106.44Z" fill="#9BC09F"/>
  <path d="M122.04 46.8V26.88H129V46.8H122.04ZM122.04 25.08V20.04H129V25.08H122.04Z" fill="#9BC09F"/>
</svg>